<?xml version="1.0" standalone="no"?>
<!DOCTYPE svg PUBLIC "-//W3C//DTD SVG 20010904//EN"
 "http://www.w3.org/TR/2001/REC-SVG-20010904/DTD/svg10.dtd">
<svg version="1.0" xmlns="http://www.w3.org/2000/svg"
 width="1143.000000pt" height="1143.000000pt" viewBox="0 0 1143.000000 1143.000000"
 preserveAspectRatio="xMidYMid meet">
<metadata>
Created by potrace 1.14, written by Peter Selinger 2001-2017
</metadata>
<g transform="translate(0.000000,1143.000000) scale(0.100000,-0.100000)"
fill="#000000" stroke="none">
<path d="M8085 11290 c-97 -7 -174 -14 -310 -25 -46 -4 -120 -12 -185 -20 -25
-3 -70 -7 -100 -10 -30 -3 -64 -7 -75 -9 -11 -2 -42 -7 -70 -10 -27 -4 -61 -9
-75 -11 -14 -2 -61 -9 -105 -15 -44 -6 -93 -14 -110 -17 -37 -6 -56 -9 -120
-18 -27 -3 -66 -10 -85 -15 -19 -5 -50 -12 -68 -15 -98 -17 -259 -55 -302 -72
-8 -4 -17 -7 -20 -8 -65 -19 -94 -33 -135 -62 -44 -33 -47 -37 -31 -49 27 -20
113 -27 301 -27 202 0 397 10 585 28 110 11 136 14 205 19 39 4 86 8 105 11
19 2 58 7 85 10 134 16 249 32 275 38 18 4 106 19 135 23 11 1 20 3 20 4 0 1
7 3 15 5 121 27 280 69 331 86 75 26 198 84 218 104 23 22 6 41 -46 52 -61 12
-294 13 -438 3z"/>
<path d="M8309 11028 c-122 -6 -283 -32 -384 -62 -5 -1 -30 -8 -55 -15 -76
-21 -204 -61 -225 -70 -11 -5 -67 -26 -125 -47 -212 -77 -407 -170 -450 -216
-25 -27 -14 -35 42 -31 173 10 548 3 673 -12 17 -3 71 -7 120 -10 50 -3 106
-8 125 -10 31 -4 60 -7 180 -20 42 -4 66 -10 100 -23 14 -5 29 -10 33 -10 20
-1 77 -43 100 -74 24 -31 26 -39 18 -86 -7 -46 -46 -122 -63 -122 -3 0 -4 -9
-1 -19 8 -32 72 -40 327 -41 133 -1 342 -4 466 -6 324 -7 531 -7 560 0 14 3
49 11 78 17 120 24 330 104 446 168 80 45 146 91 146 102 0 6 4 8 8 5 13 -8
122 103 123 125 1 10 1 30 1 44 0 14 0 32 -1 41 -1 19 -99 116 -150 149 -84
52 -374 130 -559 150 -24 2 -47 7 -51 9 -4 3 -62 12 -127 20 -133 16 -235 23
-663 42 -206 9 -529 10 -692 2z"/>
<path d="M5587 10854 c-2 -2 -96 -10 -222 -19 -38 -3 -88 -8 -110 -10 -22 -3
-60 -8 -85 -11 -25 -3 -81 -10 -125 -16 -44 -5 -93 -11 -110 -13 -111 -11
-149 -16 -154 -20 -4 -2 -35 -6 -71 -10 -35 -3 -67 -8 -70 -10 -3 -2 -23 -6
-45 -9 -22 -4 -67 -11 -100 -17 -33 -6 -72 -13 -87 -14 -42 -6 -162 -27 -218
-39 -52 -12 -141 -30 -205 -42 -44 -9 -60 -12 -60 -14 0 -1 -9 -3 -20 -5 -32
-4 -66 -12 -115 -25 -25 -7 -53 -14 -63 -16 -10 -2 -27 -6 -37 -9 -10 -3 -27
-7 -37 -9 -10 -2 -38 -9 -63 -16 -25 -7 -52 -14 -60 -15 -8 -2 -76 -22 -150
-45 -74 -23 -142 -44 -150 -45 -8 -2 -16 -4 -17 -5 -2 -2 -6 -3 -10 -5 -5 -1
-16 -5 -25 -9 -9 -4 -22 -9 -30 -10 -7 -2 -26 -8 -41 -14 -16 -7 -30 -12 -33
-12 -3 0 -21 -7 -42 -16 -20 -10 -44 -18 -53 -20 -8 -2 -29 -10 -45 -19 -16
-8 -32 -15 -36 -15 -4 0 -43 -16 -85 -36 -43 -20 -78 -35 -78 -33 0 2 -17 -7
-37 -19 -21 -13 -38 -21 -38 -17 0 3 -7 -1 -16 -9 -8 -9 -22 -16 -30 -16 -8 0
-14 -4 -14 -10 0 -5 -5 -10 -11 -10 -14 0 -183 -101 -187 -112 -2 -4 -8 -8
-14 -8 -5 0 -37 -20 -69 -45 -33 -25 -63 -45 -67 -45 -4 0 -13 -9 -20 -20 -7
-11 -16 -20 -21 -20 -6 0 -32 -21 -59 -47 -27 -27 -68 -65 -91 -85 -22 -20
-41 -39 -41 -42 0 -3 -17 -24 -38 -45 -45 -48 -60 -66 -92 -111 -13 -19 -27
-37 -31 -40 -25 -19 -61 -134 -55 -174 9 -54 17 -66 58 -87 40 -20 110 -27
155 -15 13 3 33 9 45 12 41 10 35 7 131 47 20 9 41 17 45 17 4 1 26 10 49 21
23 10 45 19 49 19 4 0 45 19 93 42 56 28 108 64 150 103 35 33 94 89 132 125
100 95 142 133 174 155 15 11 36 28 47 38 10 9 18 14 18 10 0 -5 4 -3 8 3 17
25 305 200 320 195 1 -1 33 14 71 33 38 19 71 32 75 29 3 -4 6 -1 6 5 0 7 8
12 18 12 10 0 22 3 26 8 4 4 11 7 14 8 4 0 21 6 37 13 35 15 163 61 185 66 8
2 38 11 65 20 59 19 191 55 222 61 12 2 35 9 50 15 16 6 29 10 31 9 1 0 17 2
35 5 17 3 39 7 47 9 8 1 41 8 72 15 32 7 70 14 85 16 16 2 28 4 28 5 0 2 28 7
77 14 24 3 68 10 98 15 30 5 78 12 105 15 28 3 59 8 70 10 11 2 49 7 85 11 36
4 74 9 85 11 11 3 36 6 55 9 19 2 50 6 68 9 17 3 46 8 64 11 17 3 34 8 38 10
4 2 22 7 41 10 31 6 163 55 246 91 17 8 37 14 45 14 8 0 18 4 24 8 5 5 29 17
54 26 176 68 360 168 360 195 0 17 -43 24 -158 25 -62 1 -114 1 -115 0z"/>
<path d="M6768 10855 c-2 -1 -32 -6 -68 -9 -89 -9 -194 -34 -216 -51 -18 -13
-16 -14 16 -16 44 -2 30 -2 130 5 47 4 99 9 116 12 17 3 46 7 65 9 93 11 169
34 169 51 0 5 -206 4 -212 -1z"/>
<path d="M6355 10711 c-2 -2 -17 -5 -32 -6 -132 -13 -248 -42 -242 -60 5 -13
188 -9 284 5 39 6 84 13 101 15 37 6 108 34 101 41 -5 6 -207 11 -212 5z"/>
<path d="M6047 10564 c-1 -1 -29 -4 -62 -8 -104 -11 -139 -18 -195 -39 -55
-20 -55 -20 -25 -28 61 -17 361 23 424 56 24 12 24 13 4 19 -17 5 -139 5 -146
0z"/>
<path d="M5708 10415 c-2 -2 -32 -6 -68 -10 -36 -4 -72 -9 -80 -11 -163 -39
-166 -75 -7 -60 124 11 258 39 297 61 l25 14 -30 2 c-16 1 -53 3 -82 4 -29 2
-53 1 -55 0z"/>
<path d="M5402 10258 c-98 -11 -133 -17 -187 -33 -63 -19 -80 -29 -70 -45 13
-20 194 -5 308 26 67 18 102 40 76 48 -31 10 -67 11 -127 4z"/>
<path d="M5060 10078 c-44 -9 -86 -21 -93 -25 -6 -4 -14 -8 -17 -8 -3 0 -14
-6 -25 -13 -17 -10 -18 -13 -5 -22 19 -12 103 -12 155 0 22 6 55 13 73 16 52
9 122 42 122 57 0 20 -107 17 -210 -5z"/>
<path d="M7937 9954 c-1 -1 -34 -4 -72 -7 -109 -9 -215 -37 -215 -57 0 -24
203 -17 314 11 49 12 78 35 55 43 -17 6 -78 13 -82 10z"/>
<path d="M8500 9952 c-134 -20 -206 -46 -178 -63 20 -13 195 -10 271 5 61 12
109 37 96 51 -7 6 -156 12 -189 7z"/>
<path d="M7217 9943 c-1 -1 -29 -4 -62 -7 -33 -3 -70 -8 -82 -11 -13 -3 -32
-7 -44 -10 -31 -6 -52 -26 -40 -38 15 -15 163 -11 260 8 45 9 89 26 101 40 9
11 3 15 -32 19 -37 5 -96 5 -101 -1z"/>
<path d="M4978 9925 c-2 -1 -25 -5 -53 -8 -60 -7 -82 -12 -115 -25 -33 -13
-72 -51 -67 -65 3 -10 60 -11 106 -2 76 16 117 28 130 38 8 7 17 11 20 11 3
-1 16 3 29 9 26 12 29 37 5 38 -10 0 -26 2 -35 4 -9 2 -18 2 -20 0z"/>
<path d="M6556 9922 c-3 -2 -31 -5 -64 -7 -33 -1 -64 -5 -69 -8 -4 -2 -23 -8
-42 -12 -42 -9 -78 -39 -61 -50 11 -7 140 -7 200 -1 44 5 145 38 152 49 12 19
9 25 -8 23 -9 -1 -36 0 -60 4 -24 4 -46 5 -48 2z"/>
<path d="M9330 9902 c-195 -16 -399 -91 -507 -185 -42 -37 -78 -112 -89 -183
-6 -47 -89 -295 -119 -361 -8 -17 -15 -35 -15 -41 0 -17 -96 -226 -125 -273
-68 -107 -137 -209 -189 -279 -31 -41 -64 -86 -74 -99 -9 -13 -46 -61 -83
-106 -170 -211 -290 -326 -539 -514 -247 -186 -309 -229 -655 -450 -16 -10
-86 -52 -155 -92 -200 -116 -430 -261 -430 -270 0 -5 -5 -9 -11 -9 -10 0 -173
-114 -209 -147 -8 -7 -58 -48 -110 -90 -170 -137 -486 -472 -588 -624 -31 -45
-57 -109 -46 -109 3 0 31 25 62 56 31 30 123 105 205 166 81 61 147 115 147
120 0 4 3 7 8 6 4 -2 57 32 119 75 62 42 115 77 118 77 3 0 11 5 18 10 7 6 48
31 92 56 120 69 141 81 257 150 60 35 145 83 190 106 46 23 86 46 89 51 3 5 9
8 13 7 7 -1 254 126 272 141 6 5 37 23 70 40 32 17 95 50 139 74 44 23 154 80
245 126 91 45 235 121 320 167 85 47 180 98 210 115 96 52 348 205 433 264
243 167 428 329 589 518 81 95 89 105 118 145 14 19 31 42 38 50 57 63 326
462 387 575 22 39 42 72 45 75 15 12 139 283 181 395 22 59 27 115 12 138 -4
7 -8 14 -8 17 -1 14 -34 47 -63 63 -83 47 -200 62 -362 49z"/>
<path d="M5785 9859 c-27 -9 -53 -14 -57 -12 -5 2 -8 -1 -8 -7 0 -6 -4 -9 -9
-6 -5 3 -14 -1 -21 -10 -27 -32 23 -43 125 -29 69 10 59 8 110 23 22 6 44 11
48 11 15 0 38 31 32 42 -10 15 -161 7 -220 -12z"/>
<path d="M5210 9815 c-103 -21 -159 -56 -128 -79 19 -14 64 -12 141 4 31 6 58
11 59 10 7 -4 92 46 95 56 8 26 -66 29 -167 9z"/>
<path d="M4826 9752 c-3 -2 -22 -6 -43 -8 -51 -5 -131 -32 -159 -52 -58 -42
-5 -72 94 -53 75 15 162 48 162 63 0 5 4 7 9 4 5 -3 11 2 13 12 4 15 -3 21
-33 29 -21 5 -41 8 -43 5z"/>
<path d="M4315 9674 c-50 -11 -95 -28 -95 -37 0 -6 -3 -8 -6 -4 -11 10 -36
-22 -32 -41 3 -14 15 -17 78 -16 41 1 89 8 105 15 17 7 33 12 37 11 4 -1 18
13 33 30 20 24 23 33 13 39 -13 9 -96 10 -133 3z"/>
<path d="M3757 9577 c-28 -10 -60 -21 -69 -24 -10 -3 -15 -9 -12 -14 3 -5 0
-9 -5 -9 -6 0 -11 -11 -11 -24 0 -55 146 -46 232 15 78 56 -19 96 -135 56z"/>
<path d="M4719 9556 c-2 -3 -19 -8 -37 -11 -110 -19 -192 -90 -129 -111 33
-12 77 -8 127 11 25 9 53 17 62 18 9 1 15 4 12 8 -2 4 5 10 16 14 11 3 20 10
20 15 0 5 3 15 6 23 3 10 -3 17 -19 21 -14 3 -31 8 -39 11 -8 3 -16 3 -19 1z"/>
<path d="M8449 9526 c-2 -2 -36 -7 -75 -10 -39 -4 -80 -8 -90 -10 -11 -2 -46
-7 -79 -10 -33 -4 -87 -11 -120 -16 -33 -5 -80 -12 -105 -15 -25 -3 -92 -13
-150 -21 -57 -9 -120 -17 -140 -20 -166 -19 -162 -18 -264 -91 -269 -192 -476
-295 -841 -415 -154 -51 -451 -127 -605 -154 -14 -2 -38 -7 -55 -11 -16 -4
-32 -7 -35 -8 -3 0 -30 -9 -60 -20 -30 -11 -57 -20 -60 -20 -34 -5 -180 -144
-180 -171 0 -8 -4 -14 -9 -14 -10 0 -28 -43 -35 -85 -3 -16 -7 -41 -10 -55 -3
-14 -8 -37 -12 -52 -3 -15 -8 -51 -10 -80 -6 -59 -9 -76 -17 -98 -2 -8 -13
-46 -23 -85 -9 -38 -31 -97 -48 -130 -33 -65 -144 -226 -196 -285 -18 -19 -42
-46 -54 -60 -32 -35 -228 -282 -246 -310 -8 -12 -23 -33 -32 -45 -10 -13 -18
-28 -18 -33 0 -6 -4 -12 -8 -14 -12 -5 -123 -188 -115 -188 5 0 3 -4 -4 -8
-22 -14 -178 -360 -199 -442 -2 -8 -20 -75 -39 -149 -20 -74 -38 -150 -40
-170 -7 -58 -17 -125 -22 -146 -2 -11 -5 -101 -7 -200 -6 -289 23 -436 105
-528 40 -46 106 -94 115 -84 3 3 -1 16 -9 29 -24 37 -40 126 -34 188 6 72 50
166 185 397 23 39 42 76 42 81 0 6 3 12 8 14 4 2 28 37 54 78 26 42 59 92 75
112 15 19 35 46 43 58 57 85 195 245 310 360 202 203 444 392 745 585 66 42
122 81 126 86 3 6 9 10 13 10 3 -1 91 49 194 110 103 62 198 119 212 126 14 8
43 25 65 39 22 13 59 34 83 46 23 12 42 26 42 30 0 4 4 8 10 8 26 0 483 287
620 388 62 47 277 221 316 257 6 5 44 39 84 75 91 80 263 245 383 367 92 94
207 238 207 260 0 6 4 13 9 15 11 4 120 231 136 284 17 53 14 196 -4 218 -7 8
-29 18 -50 21 -20 4 -45 8 -57 10 -12 3 -23 3 -25 1z"/>
<path d="M3276 9464 c-49 -18 -107 -61 -103 -77 4 -23 50 -44 80 -36 15 4 27
6 27 4 0 -6 72 28 103 49 30 20 37 60 11 70 -25 10 -76 6 -118 -10z"/>
<path d="M2808 9330 c-21 -10 -38 -16 -38 -14 0 3 -13 -9 -30 -26 -32 -32 -34
-38 -22 -56 25 -38 139 -14 199 42 l38 36 -24 19 c-29 24 -75 24 -123 -1z"/>
<path d="M4592 9317 c-76 -29 -100 -77 -50 -103 41 -21 102 -11 162 26 35 23
46 36 46 55 0 14 -6 28 -13 31 -33 12 -101 8 -145 -9z"/>
<path d="M2404 9200 c-88 -19 -166 -86 -141 -121 13 -16 27 -17 91 -5 40 8 70
22 94 44 7 6 17 12 22 12 13 0 20 43 9 56 -14 17 -39 21 -75 14z"/>
<path d="M4636 9105 c-14 -7 -26 -11 -29 -9 -2 2 -16 -7 -30 -20 -26 -24 -37
-66 -17 -66 6 0 10 -6 10 -14 0 -36 148 -26 183 12 27 30 29 70 4 87 -31 20
-92 25 -121 10z"/>
<path d="M1919 9022 c-62 -29 -111 -72 -106 -93 3 -11 -1 -19 -11 -21 -9 -2 0
-8 20 -14 29 -9 35 -9 32 1 -3 8 9 15 36 19 41 6 67 18 103 46 43 33 47 41 37
61 -13 24 -60 24 -111 1z"/>
<path d="M4740 8855 c-38 -20 -55 -57 -40 -85 20 -37 140 -80 140 -50 0 6 11
10 23 10 38 0 62 33 51 72 -16 58 -113 87 -174 53z"/>
<path d="M1700 8843 c-138 -19 -290 -49 -360 -70 -47 -15 -87 -27 -90 -27 -22
-4 -124 -72 -160 -108 -52 -51 -92 -98 -84 -98 3 0 -3 -12 -14 -27 -55 -78
-78 -223 -76 -468 1 -125 13 -325 21 -360 2 -11 5 -27 5 -35 0 -19 17 -158 23
-191 3 -13 8 -44 11 -69 3 -25 10 -64 15 -88 5 -23 12 -59 15 -80 3 -20 17
-84 31 -142 113 -479 317 -991 568 -1425 54 -93 228 -360 328 -502 78 -113
294 -387 344 -438 27 -27 60 -68 74 -90 32 -49 413 -436 529 -537 137 -118
253 -214 277 -226 27 -15 55 -16 33 -2 -8 5 -11 10 -6 10 5 0 -12 24 -38 54
-25 30 -46 59 -46 64 0 5 -7 15 -15 22 -22 18 -229 296 -402 540 -259 365
-538 934 -681 1390 -25 80 -87 310 -97 360 -2 8 -17 83 -34 165 -34 168 -34
169 -55 315 -30 215 -38 316 -39 505 -1 129 8 344 17 391 2 10 7 50 11 87 3
37 8 76 10 85 1 9 6 42 10 72 4 30 9 64 11 75 2 11 6 36 9 55 3 19 7 44 9 56
2 12 7 45 11 75 4 30 11 61 16 70 4 9 6 19 4 21 -3 3 5 36 17 74 12 38 23 74
24 79 1 6 7 24 14 40 6 17 11 32 11 35 0 3 8 13 16 23 9 9 13 17 9 17 -3 0 4
17 17 38 73 116 48 220 -62 257 -45 15 -151 18 -231 8z"/>
<path d="M2825 8736 c-49 -7 -109 -18 -131 -25 -35 -9 -105 -25 -250 -56 -66
-14 -200 -58 -248 -81 -152 -72 -244 -260 -233 -474 2 -47 7 -96 10 -110 3
-14 8 -59 12 -100 5 -72 39 -258 52 -290 3 -8 7 -27 9 -43 6 -42 116 -368 168
-497 61 -150 163 -355 247 -496 72 -122 176 -276 208 -311 12 -12 21 -25 21
-28 0 -22 348 -390 368 -390 4 0 22 -17 40 -37 19 -21 41 -38 48 -38 8 0 14
-4 14 -9 0 -4 30 -30 66 -57 36 -27 71 -54 78 -61 31 -28 279 -189 369 -240
108 -60 333 -170 418 -203 30 -12 68 -28 84 -35 121 -54 446 -158 508 -164 1
0 9 -2 17 -4 51 -17 250 -45 376 -53 80 -6 96 -5 92 7 -2 8 -15 16 -29 17 -13
2 -31 9 -39 16 -8 7 -62 36 -120 66 -109 55 -279 154 -340 198 -114 83 -157
117 -265 208 -233 197 -384 374 -479 561 -36 71 -81 197 -90 256 -3 18 -10 56
-15 85 -31 159 -32 500 -1 635 5 23 11 53 13 67 11 56 40 160 68 239 16 46 26
87 23 92 -3 5 -1 9 4 9 7 0 27 55 36 100 1 3 4 10 7 15 5 8 59 164 64 185 1 3
5 14 10 25 4 11 16 41 26 67 29 74 116 243 170 329 27 43 49 83 49 89 0 5 5
10 10 10 6 0 10 7 10 15 0 8 5 15 12 15 6 0 9 3 6 6 -4 3 10 33 29 67 43 75
51 151 18 170 -57 34 -88 38 -410 52 -122 6 -132 7 -265 25 -41 6 -93 13 -115
16 -100 13 -241 55 -303 90 -138 77 -141 78 -242 81 -52 1 -135 -4 -185 -11z"/>
<path d="M4950 8601 c-19 -3 -45 -13 -57 -21 -24 -16 -31 -40 -11 -40 6 0 8
-3 5 -6 -13 -13 51 -57 103 -71 78 -21 180 -7 180 24 0 18 -65 84 -100 100
-34 16 -78 21 -120 14z"/>
<path d="M4966 8273 c-1 -1 -46 -5 -101 -8 -164 -9 -228 -20 -305 -50 -139
-55 -248 -134 -323 -236 -76 -104 -191 -601 -212 -919 -8 -112 -8 -386 0 -460
5 -56 15 -118 42 -265 13 -74 86 -273 137 -371 48 -96 119 -195 130 -183 2 2
7 51 10 109 20 330 78 591 210 935 70 185 169 396 235 500 17 28 37 62 43 78
7 15 16 27 20 27 4 0 8 4 8 10 0 25 203 295 286 380 123 125 202 226 215 273
25 94 -41 158 -178 173 -58 6 -213 11 -217 7z"/>
<path d="M1987 7141 c-7 -29 12 -307 28 -393 2 -9 7 -38 10 -65 4 -26 11 -64
15 -83 5 -19 11 -53 14 -75 15 -106 101 -453 161 -650 103 -335 219 -619 375
-915 19 -36 34 -67 35 -70 0 -3 7 -16 16 -30 8 -14 46 -77 84 -140 168 -283
406 -606 614 -835 130 -142 445 -449 571 -556 14 -11 45 -38 70 -59 47 -40 64
-54 126 -105 103 -85 429 -323 436 -319 4 3 8 1 8 -4 0 -13 244 -172 430 -279
162 -93 174 -100 340 -184 274 -138 462 -214 602 -243 12 -3 34 -8 48 -12 24
-6 23 -5 -5 15 -16 12 -70 42 -120 68 -49 25 -109 59 -132 74 -23 16 -44 29
-47 29 -3 0 -14 6 -23 14 -10 8 -65 50 -123 93 -109 82 -406 315 -450 352 -14
12 -36 32 -50 43 -36 30 -153 131 -166 143 -6 5 -44 39 -84 75 -206 182 -542
509 -696 677 -69 75 -180 198 -197 217 -10 12 -26 30 -35 41 -164 191 -382
467 -382 484 0 6 -4 11 -8 11 -10 0 -213 283 -301 420 -33 52 -64 100 -69 105
-9 12 -164 266 -214 350 -105 178 -256 461 -391 730 -89 178 -247 511 -247
520 0 3 -13 33 -29 67 -42 94 -145 353 -171 430 -23 73 -35 89 -43 59z"/>
<path d="M7140 7050 c0 -5 -3 -9 -7 -9 -25 4 -43 -2 -37 -13 4 -6 3 -8 -4 -5
-15 10 -202 -70 -202 -86 0 -6 -3 -8 -6 -4 -3 3 -31 -9 -62 -27 -32 -18 -97
-55 -147 -81 -113 -61 -277 -162 -309 -192 -14 -13 -27 -23 -30 -23 -12 0
-116 -84 -116 -93 0 -6 -3 -8 -6 -4 -9 9 -138 -99 -209 -175 -359 -385 -491
-562 -580 -784 -30 -75 -62 -193 -64 -239 -6 -145 1 -220 29 -335 40 -163 127
-361 245 -555 56 -93 183 -265 196 -265 11 0 5 43 -19 132 -27 97 -49 213 -63
323 -12 96 -15 352 -5 432 3 26 8 73 11 103 26 239 132 531 286 784 61 101
203 308 232 338 7 7 34 40 61 73 47 56 223 235 277 280 13 11 62 51 109 89 47
37 94 76 105 85 11 9 45 34 75 56 30 22 57 43 58 47 2 5 9 8 15 8 17 1 190
123 195 138 2 6 -3 12 -12 12 -9 0 -16 -4 -16 -10z"/>
<path d="M5612 6653 c-6 -2 -9 -10 -6 -15 4 -6 2 -8 -4 -4 -12 7 -149 -83
-231 -152 -29 -25 -92 -95 -140 -155 -47 -61 -92 -116 -98 -123 -7 -7 -13 -17
-13 -22 0 -6 -4 -12 -8 -14 -11 -4 -84 -122 -121 -196 -18 -35 -48 -112 -68
-170 -32 -94 -37 -119 -37 -207 0 -87 3 -109 28 -170 28 -66 114 -208 154
-251 10 -10 23 -26 28 -35 14 -25 138 -159 147 -159 11 0 9 38 -8 116 -8 40
-17 100 -20 135 -3 35 -8 75 -11 88 -11 51 -4 350 11 444 37 245 101 407 249
637 67 104 78 119 148 194 26 28 48 54 48 59 0 8 -28 8 -48 0z"/>
<path d="M2730 5857 c0 -25 125 -220 234 -367 220 -296 566 -644 917 -921 80
-64 154 -118 304 -222 157 -110 630 -360 714 -378 29 -6 54 -9 56 -7 2 2 -5
45 -16 97 -10 51 -22 130 -26 175 -12 132 -8 484 6 560 14 81 13 83 -62 85
-103 2 -517 106 -740 185 -119 43 -151 57 -363 156 -172 80 -653 368 -747 447
-16 13 -34 20 -39 17 -6 -4 -9 -3 -6 2 3 5 -33 38 -81 74 -125 95 -151 111
-151 97z"/>
<path d="M3110 5085 c0 -8 5 -15 10 -15 6 0 10 -5 10 -11 0 -18 184 -288 192
-282 5 2 7 0 6 -5 -3 -10 63 -102 167 -232 33 -41 65 -82 72 -90 22 -29 188
-225 223 -264 118 -133 178 -195 390 -406 129 -129 294 -286 365 -349 230
-201 449 -371 479 -371 3 0 -8 28 -23 63 -29 64 -56 149 -65 202 -2 17 -8 50
-11 75 -4 25 -9 52 -10 60 -7 41 -17 146 -20 210 -3 70 -12 89 -41 90 -18 0
-215 105 -354 188 -143 85 -452 294 -545 369 -5 5 -30 24 -55 43 -56 43 -257
208 -285 235 -152 143 -279 272 -443 448 -29 31 -55 57 -58 57 -2 0 -4 -7 -4
-15z"/>
<path d="M5132 4782 c-48 -112 -82 -290 -82 -437 0 -175 49 -340 170 -580 85
-169 154 -277 261 -413 41 -52 87 -110 102 -130 25 -33 113 -122 208 -209 19
-17 41 -33 49 -35 8 -2 24 -13 35 -25 31 -35 87 -73 97 -67 8 5 -21 51 -57 91
-57 64 -285 406 -285 428 0 2 -15 30 -34 62 -112 194 -211 413 -256 566 -8 26
-18 47 -23 47 -4 0 -6 4 -3 9 3 5 -1 31 -9 59 -17 55 -61 247 -70 302 -3 19
-7 46 -10 60 -3 14 -7 39 -9 55 -5 36 -17 114 -21 135 -1 8 -6 41 -9 73 -9 71
-26 74 -54 9z"/>
<path d="M5403 4537 c17 -486 132 -806 470 -1312 44 -66 84 -124 89 -130 5 -5
38 -53 75 -105 329 -472 452 -737 518 -1120 37 -214 13 -548 -49 -676 -26 -53
-16 -74 17 -33 10 13 26 33 35 44 65 77 153 246 192 369 54 165 59 366 15 556
-30 130 -29 128 -40 155 -96 250 -177 423 -285 610 -25 44 -49 87 -52 95 -8
18 -147 230 -329 502 -239 356 -344 531 -454 754 -65 132 -165 371 -179 427
-3 15 -11 27 -17 27 -8 0 -10 -48 -6 -163z"/>
<path d="M7559 4630 c-13 -10 -21 -19 -17 -20 14 0 58 23 58 32 0 14 -16 9
-41 -12z"/>
<path d="M5063 3729 c-15 -29 -18 -57 -17 -204 0 -154 3 -180 28 -275 28 -105
88 -234 133 -286 12 -15 23 -31 23 -35 0 -14 221 -233 285 -283 33 -25 65 -50
71 -55 12 -10 95 -67 215 -150 72 -49 167 -128 216 -181 27 -28 61 -88 103
-180 4 -8 6 -69 5 -135 -5 -321 -169 -772 -381 -1050 -13 -18 -21 -35 -16 -39
4 -4 2 -6 -4 -4 -12 3 -114 -106 -114 -123 0 -15 15 -11 38 11 12 11 23 19 24
18 6 -5 104 60 141 94 21 19 60 66 87 104 75 105 180 263 180 271 0 3 6 14 14
22 26 29 125 235 165 343 59 157 79 268 76 413 -8 321 -163 551 -569 845 -149
107 -306 254 -381 355 -136 184 -197 292 -250 441 -19 54 -39 102 -44 107 -6
6 -17 -4 -28 -24z"/>
<path d="M6449 1788 c-8 -7 -39 -74 -68 -148 -182 -464 -379 -764 -649 -992
-48 -40 -89 -75 -92 -78 -8 -9 -198 -142 -285 -200 -44 -29 -81 -57 -83 -62
-2 -4 -8 -8 -13 -8 -12 0 -87 -49 -114 -74 l-20 -18 20 5 c11 3 45 9 75 12 88
10 139 24 234 61 528 208 828 494 985 937 48 138 64 242 58 387 -5 140 -21
200 -48 178z"/>
</g>
</svg>
